Coordinates
version=1
nRows=12
nColumns=24
inDegrees=yes

Units are S.I. units (second, meters, Newtons, ...)
Angles are in degrees.

endheader
time	pelvis_tilt	pelvis_list	pelvis_rotation	pelvis_tx	pelvis_ty	pelvis_tz	hip_flexion_r	hip_adduction_r	hip_rotation_r	knee_angle_r	ankle_angle_r	subtalar_angle_r	mtp_angle_r	hip_flexion_l	hip_adduction_l	hip_rotation_l	knee_angle_l	ankle_angle_l	subtalar_angle_l	mtp_angle_l	lumbar_extension	lumbar_bending	lumbar_rotation
      3.88500000	    -10.03690282	     -9.52776204	      6.18201295	     -2.63335613	     -0.02238572	      0.42375866	     22.05736276	     10.95660135	     -3.55531721	    -14.94574460	     -5.24764764	     -4.06262019	      4.92739476	     18.26527976	     -9.35805538	      5.66679151	    -61.11383486	    -26.46292934	      1.43686811	     26.28425299	      8.80618302	     10.02878329	     -5.60061016
      3.89000000	     -9.90453827	     -9.40507321	      6.31695990	     -2.62747585	     -0.02150565	      0.42407920	     21.35108961	     10.91643564	     -3.51172693	    -14.68954308	     -4.94330667	     -4.04446718	      5.06006748	     19.07974534	     -9.09261560	      5.90343686	    -61.96050061	    -26.04329424	     -0.15990900	     25.74965312	      8.63736491	      9.85336605	     -5.50545621
      3.89500000	     -9.75647322	     -9.18227153	      6.37363024	     -2.62158224	     -0.02052921	      0.42448340	     20.61005105	     10.81002666	     -3.35236979	    -14.44747147	     -4.64584762	     -4.04926617	      5.10645289	     19.80287417	     -8.74857328	      6.02471247	    -62.67611135	    -25.53948164	     -1.52214256	     25.13626504	      8.42717594	      9.58402448	     -5.31596612
      3.90000000	     -9.62479599	     -8.92801307	      6.39045970	     -2.61570030	     -0.01955137	      0.42492422	     19.87981170	     10.68431021	     -3.13174648	    -14.20763502	     -4.36646686	     -4.08123747	      5.10034015	     20.51024806	     -8.38679731	      6.09111064	    -63.28748079	    -24.98123508	     -2.65981496	     24.59314419	      8.22593296	      9.29013467	     -5.09022248
      3.90500000	     -9.51554202	     -8.64635638	      6.35212797	     -2.60981309	     -0.01857006	      0.42541172	     19.16822645	     10.54350785	     -2.85774221	    -13.97154489	     -4.12380264	     -4.12360072	      5.06517397	     21.20003564	     -8.02132340	      6.07446388	    -63.78704728	    -24.36050039	     -3.61500368	     24.11483101	      8.04056841	      8.97250142	     -4.81707231
      3.91000000	     -9.43882297	     -8.32168269	      6.28804176	     -2.60396848	     -0.01761675	      0.42592810	     18.48934627	     10.36278920	     -2.50931075	    -13.74267184	     -3.88493289	     -4.22673815	      5.00564074	     21.89611885	     -7.61385244	      6.03063308	    -64.18191894	    -23.72119602	     -4.36550641	     23.76802590	      7.87728437	      8.61209591	     -4.51414749
      3.91500000	     -9.42011220	     -7.98020589	      6.27939595	     -2.59816513	     -0.01671005	      0.42636833	     17.87806348	     10.13094368	     -2.22203779	    -13.51200391	     -3.66077806	     -4.32464441	      4.96582954	     22.64255676	     -7.15090861	      6.06706297	    -64.45882923	    -23.02311650	     -4.87302519	     23.75090821	      7.78398351	      8.21589658	     -4.32347346
      3.92000000	     -9.38930808	     -7.52773281	      6.05098570	     -2.59235664	     -0.01573581	      0.42706737	     17.25338816	      9.86065526	     -1.67812399	    -13.33691105	     -3.47874715	     -4.53160121	      4.83517663	     23.27423404	     -6.68797085	      5.77500082	    -64.60784143	    -22.30963301	     -5.35130683	     23.48892791	      7.62923672	      7.74546353	     -3.81311272
      3.92500000	     -9.41272111	     -7.11320513	      6.02305471	     -2.58660900	     -0.01484888	      0.42747313	     16.69484622	      9.54112909	     -1.35540148	    -13.12997387	     -3.27931847	     -4.66691111	      4.77377619	     24.00430080	     -6.15653972	      5.72594507	    -64.66958526	    -21.57591605	     -5.64696563	     23.52164859	      7.57067144	      7.27956355	     -3.62054115
      3.93000000	     -9.43816407	     -6.59711373	      5.69208892	     -2.58089497	     -0.01394428	      0.42830811	     16.15848534	      9.21629837	     -0.71814899	    -13.00743695	     -3.11445323	     -4.90167185	      4.62527901	     24.62197300	     -5.67825115	      5.32487149	    -64.60304569	    -20.69089951	     -5.70609334	     23.49640515	      7.44527727	      6.74847591	     -3.01046952
      3.93500000	     -9.48714400	     -6.11006694	      5.45822526	     -2.57511914	     -0.01308729	      0.42900780	     15.62009746	      8.87882069	     -0.15103786	    -12.81515757	     -2.95746805	     -5.12304576	      4.48327206	     25.26814005	     -5.19537171	      5.00683458	    -64.44519343	    -19.80880380	     -5.67199068	     23.50438981	      7.38924029	      6.23209528	     -2.58501361
      3.94000000	     -9.54978640	     -5.60023487	      5.21351806	     -2.56946912	     -0.01227899	      0.42969661	     15.13568456	      8.50469853	      0.35964522	    -12.67525468	     -2.78410258	     -5.29869522	      4.38663195	     25.91098772	     -4.68909683	      4.67837022	    -64.19256124	    -18.93060830	     -5.57390088	     23.57911556	      7.32737212	      5.69773246	     -2.13154930
